<?xml version="1.0" standalone="no"?>
<!DOCTYPE svg PUBLIC "-//W3C//DTD SVG 20010904//EN"
 "http://www.w3.org/TR/2001/REC-SVG-20010904/DTD/svg10.dtd">
<svg version="1.0" xmlns="http://www.w3.org/2000/svg"
 width="1500.000000pt" height="1500.000000pt" viewBox="0 0 1500.000000 1500.000000"
 preserveAspectRatio="xMidYMid meet">

<g transform="translate(0.000000,1500.000000) scale(0.100000,-0.100000)"
fill="#000000" stroke="none">
<path d="M7439 11692 c-33 -4 -42 -15 -166 -187 -55 -77 -185 -259 -290 -405
-992 -1385 -1763 -2461 -1782 -2487 -12 -18 -27 -33 -32 -33 -6 0 -9 72 -9
188 l2 187 -889 -4 c-488 -2 -889 -5 -891 -6 -3 -3 49 -79 308 -450 256 -367
602 -867 651 -943 l48 -73 -133 -187 c-73 -103 -253 -356 -401 -562 -434 -606
-545 -763 -545 -772 0 -4 354 -9 788 -9 433 -1 920 -5 1082 -8 l295 -6 258
-365 c142 -201 313 -444 381 -540 68 -96 193 -274 278 -395 244 -347 523 -744
761 -1083 120 -172 223 -312 228 -310 11 4 340 457 994 1373 287 402 544 760
571 797 27 36 101 137 164 223 63 86 136 183 162 214 l48 58 157 7 c87 3 565
8 1063 12 498 3 912 8 922 10 12 4 -103 178 -501 757 -284 414 -520 757 -524
764 -12 20 14 62 203 328 352 497 799 1140 807 1163 4 9 -177 12 -886 12
l-891 0 -1 -147 c0 -82 -3 -166 -7 -188 l-7 -39 -775 1104 c-1299 1854 -1391
1985 -1403 1995 -7 6 -24 9 -38 7z m79 -1939 c311 -438 552 -782 552 -787 0
-3 -290 -6 -644 -6 -355 0 -646 -3 -648 -7 -2 -5 -2 -205 0 -445 l2 -438 30 0
c51 0 68 29 -252 -418 -105 -147 -259 -361 -341 -477 -218 -305 -199 -282
-208 -258 -4 11 -89 134 -188 273 -100 139 -180 256 -179 260 5 11 1750 2470
1753 2470 2 0 57 -75 123 -167z m1049 -1493 c247 -355 483 -693 523 -752 l74
-108 -24 -42 c-13 -24 -89 -137 -170 -253 -80 -115 -160 -231 -178 -256 l-31
-47 -738 5 c-406 3 -766 8 -799 11 l-61 7 118 170 c745 1074 743 1070 777
1073 l32 3 0 387 c0 372 5 473 20 455 4 -4 209 -298 457 -653z m-458 -2335 c7
-7 -61 -109 -233 -349 -94 -132 -196 -275 -226 -317 -155 -219 -243 -339 -251
-339 -4 0 -27 28 -50 63 -24 34 -147 211 -274 392 -325 464 -321 458 -344 506
-12 23 -21 45 -21 48 0 6 1393 2 1399 -4z"/>

</g>
</svg>
