<?xml version="1.0" encoding="UTF-8"?>
<!DOCTYPE svg PUBLIC "-//W3C//DTD SVG 1.1//EN" "http://www.w3.org/Graphics/SVG/1.1/DTD/svg11.dtd">
<svg xmlns="http://www.w3.org/2000/svg" version="1.1" width="500px" height="500px" style="shape-rendering:geometricPrecision; text-rendering:geometricPrecision; image-rendering:optimizeQuality; fill-rule:evenodd; clip-rule:evenodd" xmlns:xlink="http://www.w3.org/1999/xlink">
<g><path style="opacity:1" fill="white" d="M -0.5,-0.5 C 166.167,-0.5 332.833,-0.5 499.5,-0.5C 499.5,166.167 499.5,332.833 499.5,499.5C 332.833,499.5 166.167,499.5 -0.5,499.5C -0.5,332.833 -0.5,166.167 -0.5,-0.5 Z"/></g>
<g><path style="opacity:1" fill="#e5e5e5" d="M 221.5,106.5 C 221.975,109.082 221.308,111.082 219.5,112.5C 218.739,104.512 218.072,96.5124 217.5,88.5C 218.978,88.238 220.311,88.5713 221.5,89.5C 225.425,95.0145 229.592,100.348 234,105.5C 233.761,99.5354 233.594,93.5354 233.5,87.5C 234.5,87.5 235.5,87.5 236.5,87.5C 237.023,95.4903 237.356,103.49 237.5,111.5C 235.097,111.607 233.264,110.607 232,108.5C 228.333,103.5 224.667,98.5 221,93.5C 221.291,97.7738 221.457,102.107 221.5,106.5 Z"/></g>
<g><path style="opacity:1" fill="#e5e5e5" d="M 253.5,88.5 C 258.314,88.2197 262.98,88.8864 267.5,90.5C 263.88,91.2932 260.213,91.2932 256.5,90.5C 256.037,93.4824 255.704,96.4824 255.5,99.5C 259.064,99.1506 262.398,99.8173 265.5,101.5C 261.88,102.293 258.213,102.293 254.5,101.5C 254.5,104.833 254.5,108.167 254.5,111.5C 253.5,111.5 252.5,111.5 251.5,111.5C 251.45,103.761 252.117,96.0946 253.5,88.5 Z"/></g>
<g><path style="opacity:1" fill="#e5e5e5" d="M 197.5,92.5 C 204.617,91.1401 209.451,93.8068 212,100.5C 215.071,112.417 210.571,117.917 198.5,117C 191.933,112.979 189.433,107.146 191,99.5C 192.425,96.3937 194.592,94.0604 197.5,92.5 Z"/></g>
<g><path style="opacity:1" fill="#e5e5e5" d="M 277.5,92.5 C 290.617,92.7071 294.784,99.0404 290,111.5C 287.081,117.025 282.581,118.858 276.5,117C 269.495,112.902 267.662,107.069 271,99.5C 272.694,96.6424 274.861,94.309 277.5,92.5 Z"/></g>
<g><path style="opacity:1" fill="#090909" d="M 197.5,95.5 C 205.653,94.1494 209.653,97.6494 209.5,106C 210.097,111.903 207.43,114.737 201.5,114.5C 196.052,112.816 193.385,108.983 193.5,103C 193.43,99.6335 194.763,97.1335 197.5,95.5 Z"/></g>
<g><path style="opacity:1" fill="#070707" d="M 277.5,95.5 C 286.889,94.3872 290.389,98.3872 288,107.5C 286.535,113.653 282.702,115.82 276.5,114C 271.239,107.664 271.573,101.498 277.5,95.5 Z"/></g>
<g><path style="opacity:1" fill="#e2e2e2" d="M 180.5,98.5 C 184.105,105.791 187.438,113.291 190.5,121C 189.584,121.374 188.75,121.874 188,122.5C 184.931,115.126 181.764,107.792 178.5,100.5C 179.243,99.8182 179.909,99.1515 180.5,98.5 Z"/></g>
<g><path style="opacity:1" fill="#e5e5e5" d="M 301.5,99.5 C 302.675,99.281 303.675,99.6143 304.5,100.5C 300.397,106.641 298.23,113.307 298,120.5C 300.317,123.097 303.15,123.93 306.5,123C 310.062,117.375 313.229,111.541 316,105.5C 316.75,106.126 317.584,106.626 318.5,107C 315.599,111.968 313.099,117.135 311,122.5C 305.45,127.869 300.116,127.536 295,121.5C 294.833,120.167 294.667,118.833 294.5,117.5C 296.271,111.29 298.604,105.29 301.5,99.5 Z"/></g>
<g><path style="opacity:1" fill="#e2e2e2" d="M 166.5,104.5 C 168.5,104.5 170.5,104.5 172.5,104.5C 172.5,105.5 172.5,106.5 172.5,107.5C 168.808,106.971 165.642,107.971 163,110.5C 162.333,111.833 162.333,113.167 163,114.5C 167.76,115.069 172.593,115.235 177.5,115C 182.398,118.522 182.731,122.522 178.5,127C 175.119,129.245 171.452,129.912 167.5,129C 166.269,127.817 166.269,126.651 167.5,125.5C 172.565,127.618 176.232,126.285 178.5,121.5C 178.471,119.971 177.804,118.804 176.5,118C 173.343,117.76 170.176,117.927 167,118.5C 161.469,118.635 159.136,115.969 160,110.5C 162.063,108.266 164.229,106.266 166.5,104.5 Z"/></g>
<g><path style="opacity:1" fill="#777777" d="M 221.5,106.5 C 222.468,108.607 222.802,110.941 222.5,113.5C 221.209,113.737 220.209,113.404 219.5,112.5C 221.308,111.082 221.975,109.082 221.5,106.5 Z"/></g>
<g><path style="opacity:1" fill="#eaeaea" d="M 325.5,124.5 C 326.634,122.034 326.801,119.367 326,116.5C 325.283,117.044 324.783,117.711 324.5,118.5C 321.58,123.427 318.246,128.094 314.5,132.5C 313.692,132.192 313.025,131.692 312.5,131C 317.005,124.337 321.672,117.837 326.5,111.5C 327.086,111.709 327.586,112.043 328,112.5C 328.333,119.833 328.667,127.167 329,134.5C 332.333,129.833 335.667,125.167 339,120.5C 339.75,121.126 340.584,121.626 341.5,122C 337.027,128.639 332.361,135.139 327.5,141.5C 326.914,141.291 326.414,140.957 326,140.5C 325.501,135.177 325.334,129.844 325.5,124.5 Z"/></g>
<g><path style="opacity:1" fill="#e3e3e3" d="M 148.5,115.5 C 150.167,115.5 151.833,115.5 153.5,115.5C 153.5,116.5 153.5,117.5 153.5,118.5C 150.436,118.144 147.769,118.977 145.5,121C 143.733,124.424 144.733,126.59 148.5,127.5C 150.61,126.946 152.61,126.112 154.5,125C 159.834,123.667 163.167,125.667 164.5,131C 162.463,137.863 157.797,141.03 150.5,140.5C 150.5,139.5 150.5,138.5 150.5,137.5C 155.832,138.337 159.499,136.337 161.5,131.5C 161.167,129.167 159.833,127.833 157.5,127.5C 154.167,128.5 150.833,129.5 147.5,130.5C 142.622,129.417 140.789,126.417 142,121.5C 144.063,119.266 146.229,117.266 148.5,115.5 Z"/></g>
<g><path style="opacity:1" fill="#8a8a8a" d="M 325.5,124.5 C 325.795,122.265 325.461,120.265 324.5,118.5C 324.783,117.711 325.283,117.044 326,116.5C 326.801,119.367 326.634,122.034 325.5,124.5 Z"/></g>
<g><path style="opacity:1" fill="#e4e4e4" d="M 133.5,127.5 C 138.801,132.971 143.967,138.638 149,144.5C 149.563,145.725 149.23,146.725 148,147.5C 142.597,141.686 137.43,135.686 132.5,129.5C 132.863,128.817 133.196,128.15 133.5,127.5 Z"/></g>
<g><path style="opacity:1" fill="#e7e7e7" d="M 347.5,128.5 C 351.067,130.557 354.234,133.223 357,136.5C 359.461,144.748 356.628,150.582 348.5,154C 346.167,154.667 343.833,154.667 341.5,154C 337.868,151.37 334.535,148.37 331.5,145C 337.036,139.631 342.37,134.131 347.5,128.5 Z"/></g>
<g><path style="opacity:1" fill="#080808" d="M 348.5,131.5 C 357.791,137.918 357.791,144.418 348.5,151C 346.167,151.667 343.833,151.667 341.5,151C 339.5,149 337.5,147 335.5,145C 340.037,140.631 344.37,136.131 348.5,131.5 Z"/></g>
<g><path style="opacity:1" fill="#e6e6e6" d="M 124.5,135.5 C 130.803,140.468 136.803,145.802 142.5,151.5C 141.635,152.583 140.635,152.749 139.5,152C 135.033,148.535 130.867,144.702 127,140.5C 129.442,146.88 132.608,153.047 136.5,159C 135.57,159.991 134.404,160.491 133,160.5C 127.223,158.178 121.39,156.345 115.5,155C 120.167,159 124.833,163 129.5,167C 128.975,167.692 128.308,168.192 127.5,168.5C 121.353,163.52 115.353,158.354 109.5,153C 110.399,151.764 111.566,150.93 113,150.5C 119.474,153.102 125.974,155.269 132.5,157C 129.207,151.582 126.04,146.082 123,140.5C 122.387,138.505 122.887,136.838 124.5,135.5 Z"/></g>
<g><path style="opacity:1" fill="#e2e2e2" d="M 368.5,152.5 C 370.912,152.244 372.579,153.244 373.5,155.5C 368.862,162.638 364.028,169.638 359,176.5C 358.308,175.975 357.808,175.308 357.5,174.5C 358.38,172.571 359.38,170.737 360.5,169C 359.037,165.549 356.871,162.715 354,160.5C 351.953,161.609 349.787,162.276 347.5,162.5C 347.36,160.876 348.027,159.71 349.5,159C 356.1,157.276 362.433,155.11 368.5,152.5 Z"/></g>
<g><path style="opacity:1" fill="#4f5b6c" d="M 241.5,142.5 C 257.086,165.934 272.92,189.268 289,212.5C 289.483,211.552 289.649,210.552 289.5,209.5C 291.314,211.764 293.147,214.097 295,216.5C 295.181,213.305 295.681,210.305 296.5,207.5C 296.5,212.5 296.5,217.5 296.5,222.5C 305.888,222.642 315.221,222.642 324.5,222.5C 322.823,224.54 321.156,226.54 319.5,228.5C 305.892,229.216 295.392,235.216 288,246.5C 287.667,246.167 287.333,245.833 287,245.5C 285.751,248.586 283.584,250.92 280.5,252.5C 279.025,254.809 277.358,256.976 275.5,259C 262.154,259.833 248.821,259.666 235.5,258.5C 235.624,257.893 235.957,257.56 236.5,257.5C 249.006,258.825 261.673,258.825 274.5,257.5C 277,253.833 279.5,250.167 282,246.5C 282.667,245.167 282.667,243.833 282,242.5C 274.057,230.923 265.89,219.59 257.5,208.5C 257.5,208.167 257.5,207.833 257.5,207.5C 252.401,199.621 247.067,191.955 241.5,184.5C 241.5,184.167 241.5,183.833 241.5,183.5C 242.511,181.598 242.678,179.598 242,177.5C 239.414,170.644 237.081,163.644 235,156.5C 234.329,155.748 233.496,155.414 232.5,155.5C 235.143,150.868 238.143,146.535 241.5,142.5 Z"/></g>
<g><path style="opacity:1" fill="#141414" d="M 368.5,155.5 C 369.525,155.897 369.692,156.563 369,157.5C 367.062,160.39 364.895,163.056 362.5,165.5C 360.96,163.613 359.293,161.78 357.5,160C 361.177,158.341 364.844,156.841 368.5,155.5 Z"/></g>
<g><path style="opacity:1" fill="#e1e1e1" d="M 379.5,165.5 C 382.559,169.937 385.392,174.603 388,179.5C 388.749,180.635 388.583,181.635 387.5,182.5C 385.833,180.5 384.167,178.5 382.5,176.5C 376.094,179.452 369.927,182.785 364,186.5C 362.887,185.24 362.72,184.073 363.5,183C 369.822,180.174 375.822,176.841 381.5,173C 379.391,170.691 378.724,168.191 379.5,165.5 Z"/></g>
<g><path style="opacity:1" fill="#e1e1e1" d="M 99.5,168.5 C 106.964,172.066 114.297,175.899 121.5,180C 121.043,180.414 120.709,180.914 120.5,181.5C 112.813,182.558 105.146,183.724 97.5,185C 102.341,187.921 107.341,190.588 112.5,193C 113.993,194.156 113.826,194.99 112,195.5C 104.75,192.461 97.9165,188.794 91.5,184.5C 92.4525,182.488 94.1191,181.488 96.5,181.5C 102.241,181.06 107.908,180.227 113.5,179C 108.833,176.667 104.167,174.333 99.5,172C 98.3157,170.855 98.3157,169.688 99.5,168.5 Z"/></g>
<g><path style="opacity:1" fill="#606c7c" d="M 232.5,155.5 C 233.496,155.414 234.329,155.748 235,156.5C 237.081,163.644 239.414,170.644 242,177.5C 242.678,179.598 242.511,181.598 241.5,183.5C 234.505,191.839 227.839,200.505 221.5,209.5C 219.621,209.607 219.288,209.107 220.5,208C 218.053,200.834 215.553,193.334 213,185.5C 212.329,186.252 211.496,186.586 210.5,186.5C 217.6,175.953 224.933,165.62 232.5,155.5 Z"/></g>
<g><path style="opacity:1" fill="#e4e4e4" d="M 387.5,187.5 C 388.978,187.238 390.311,187.571 391.5,188.5C 384.951,192.583 377.951,195.916 370.5,198.5C 368.646,197.824 368.313,196.824 369.5,195.5C 375.826,193.332 381.826,190.666 387.5,187.5 Z"/></g>
<g><path style="opacity:1" fill="#a4a8ad" d="M 289.5,209.5 C 289.649,210.552 289.483,211.552 289,212.5C 272.92,189.268 257.086,165.934 241.5,142.5C 241.897,141.475 242.563,141.308 243.5,142C 259.445,164.107 274.779,186.607 289.5,209.5 Z"/></g>
<g><path style="opacity:1" fill="#e7e7e7" d="M 90.5,195.5 C 96.8444,194.478 102.344,196.145 107,200.5C 110.674,213.492 105.84,218.992 92.5,217C 84.9355,214.37 82.4355,209.203 85,201.5C 86.3597,198.977 88.193,196.977 90.5,195.5 Z"/></g>
<g><path style="opacity:1" fill="#bec0c2" d="M 241.5,183.5 C 241.5,183.833 241.5,184.167 241.5,184.5C 233.512,195.796 225.512,207.129 217.5,218.5C 216.957,218.44 216.624,218.107 216.5,217.5C 218.22,214.798 219.887,212.132 221.5,209.5C 227.839,200.505 234.505,191.839 241.5,183.5 Z"/></g>
<g><path style="opacity:1" fill="#090909" d="M 90.5,198.5 C 95.6451,198.285 100.312,199.618 104.5,202.5C 107.398,206.853 106.732,210.686 102.5,214C 97.0066,215.358 92.1733,214.191 88,210.5C 85.6957,205.855 86.529,201.855 90.5,198.5 Z"/></g>
<g><path style="opacity:1" fill="#dedede" d="M 384.5,198.5 C 396.214,198.706 400.381,204.373 397,215.5C 392.541,220.326 387.041,222.159 380.5,221C 373.3,216.63 371.8,210.797 376,203.5C 378.682,201.415 381.516,199.748 384.5,198.5 Z"/></g>
<g><path style="opacity:1" fill="#060606" d="M 382.5,202.5 C 392.313,200.156 396.48,203.823 395,213.5C 389.709,218.735 384.043,219.401 378,215.5C 375.084,209.531 376.584,205.197 382.5,202.5 Z"/></g>
<g><path style="opacity:1" fill="#040405" d="M 241.5,184.5 C 247.067,191.955 252.401,199.621 257.5,207.5C 247.167,207.5 236.833,207.5 226.5,207.5C 226.201,215.253 226.534,222.92 227.5,230.5C 222.809,236.536 218.475,242.869 214.5,249.5C 212.53,251.647 210.697,253.98 209,256.5C 206.152,252.323 203.318,248.156 200.5,244C 205.799,235.23 211.465,226.73 217.5,218.5C 225.512,207.129 233.512,195.796 241.5,184.5 Z"/></g>
<g><path style="opacity:1" fill="#5e6a7a" d="M 257.5,207.5 C 257.5,207.833 257.5,208.167 257.5,208.5C 257.666,215.175 257.5,221.842 257,228.5C 254.636,231.69 252.136,234.69 249.5,237.5C 246.864,240.31 244.364,243.31 242,246.5C 241.147,244.875 240.147,244.542 239,245.5C 237.359,240.241 235.525,235.074 233.5,230C 238.721,229.458 238.721,228.624 233.5,227.5C 231.538,222.655 230.038,217.655 229,212.5C 228.623,218.826 228.123,224.826 227.5,230.5C 226.534,222.92 226.201,215.253 226.5,207.5C 236.833,207.5 247.167,207.5 257.5,207.5 Z"/></g>
<g><path style="opacity:1" fill="#444f5f" d="M 296.5,207.5 C 309.85,207.167 323.183,207.501 336.5,208.5C 336.058,209.739 335.391,210.739 334.5,211.5C 334.225,209.158 333.392,209.158 332,211.5C 329.49,215.195 326.99,218.862 324.5,222.5C 315.221,222.642 305.888,222.642 296.5,222.5C 296.5,217.5 296.5,212.5 296.5,207.5 Z"/></g>
<g><path style="opacity:1" fill="#020303" d="M 257.5,208.5 C 265.89,219.59 274.057,230.923 282,242.5C 282.667,243.833 282.667,245.167 282,246.5C 279.5,250.167 277,253.833 274.5,257.5C 261.673,258.825 249.006,258.825 236.5,257.5C 241.342,251.146 245.675,244.479 249.5,237.5C 252.136,234.69 254.636,231.69 257,228.5C 257.5,221.842 257.666,215.175 257.5,208.5 Z"/></g>
<g><path style="opacity:1" fill="#dfdfdf" d="M 80.5,221.5 C 87.8004,222.772 95.1338,223.939 102.5,225C 103.973,225.71 104.64,226.876 104.5,228.5C 96.5566,226.848 88.5566,225.514 80.5,224.5C 80.5,223.5 80.5,222.5 80.5,221.5 Z"/></g>
<g><path style="opacity:1" fill="#d3d6da" d="M 172.5,207.5 C 171.791,208.404 170.791,208.737 169.5,208.5C 166.833,208.5 164.167,208.5 161.5,208.5C 159.143,208.337 156.81,208.503 154.5,209C 156.609,210.141 158.442,211.641 160,213.5C 161.257,217.02 163.257,220.02 166,222.5C 166.549,225.923 167.382,229.256 168.5,232.5C 168.333,233.5 168.167,234.5 168,235.5C 167.329,234.748 166.496,234.414 165.5,234.5C 159.03,225.848 152.696,217.014 146.5,208C 155.16,207.5 163.827,207.334 172.5,207.5 Z"/></g>
<g><path style="opacity:1" fill="#e0e0e0" d="M 397.5,225.5 C 399.167,225.5 400.833,225.5 402.5,225.5C 402.657,226.873 402.49,228.207 402,229.5C 396.544,233.287 391.377,237.454 386.5,242C 392.167,242.242 397.833,242.075 403.5,241.5C 403.5,242.5 403.5,243.5 403.5,244.5C 395.476,244.946 387.476,245.613 379.5,246.5C 379.238,245.022 379.571,243.689 380.5,242.5C 385.69,238.142 391.023,233.976 396.5,230C 390.49,229.591 384.49,229.758 378.5,230.5C 378.5,229.5 378.5,228.5 378.5,227.5C 385,227.064 391.334,226.398 397.5,225.5 Z"/></g>
<g><path style="opacity:1" fill="#dedede" d="M 78.5,230.5 C 79.8734,230.343 81.2068,230.51 82.5,231C 87.7244,235.859 93.2244,240.359 99,244.5C 99.2644,240.044 100.098,235.711 101.5,231.5C 102.495,237.128 102.829,242.794 102.5,248.5C 101.127,248.657 99.7932,248.49 98.5,248C 92.9804,242.979 87.3137,238.146 81.5,233.5C 80.5078,237.783 80.1744,242.116 80.5,246.5C 79.5,246.5 78.5,246.5 77.5,246.5C 78.0978,241.187 78.4312,235.854 78.5,230.5 Z"/></g>
<g><path style="opacity:1" fill="#868d96" d="M 334.5,211.5 C 327.924,221.645 321.09,231.645 314,241.5C 314.273,245.307 315.773,248.64 318.5,251.5C 317.833,251.5 317.167,251.5 316.5,251.5C 314.852,249.571 313.185,247.571 311.5,245.5C 306.785,249.235 302.452,253.902 298.5,259.5C 299.612,253.801 302.612,249.468 307.5,246.5C 309.526,243.482 311.526,240.482 313.5,237.5C 315.745,234.68 317.745,231.68 319.5,228.5C 321.156,226.54 322.823,224.54 324.5,222.5C 326.99,218.862 329.49,215.195 332,211.5C 333.392,209.158 334.225,209.158 334.5,211.5 Z"/></g>
<g><path style="opacity:1" fill="#b6bbc2" d="M 161.5,208.5 C 164.389,211.256 166.556,214.589 168,218.5C 169,219.167 170,219.833 171,220.5C 174.759,233.563 179.426,246.23 185,258.5C 193,269.833 201,281.167 209,292.5C 209.748,294.332 210.748,295.999 212,297.5C 212.765,299.066 212.598,300.399 211.5,301.5C 205.78,294.447 200.447,287.113 195.5,279.5C 190.167,271.5 184.833,263.5 179.5,255.5C 176.488,251.462 173.488,247.462 170.5,243.5C 168.568,240.634 166.901,237.634 165.5,234.5C 166.496,234.414 167.329,234.748 168,235.5C 168.167,234.5 168.333,233.5 168.5,232.5C 167.382,229.256 166.549,225.923 166,222.5C 163.257,220.02 161.257,217.02 160,213.5C 158.442,211.641 156.609,210.141 154.5,209C 156.81,208.503 159.143,208.337 161.5,208.5 Z"/></g>
<g><path style="opacity:1" fill="#424e5e" d="M 316.5,251.5 C 322.112,260.285 327.945,268.952 334,277.5C 334.816,278.823 335.983,279.489 337.5,279.5C 320.672,280.332 303.672,280.832 286.5,281C 282.024,286.812 277.691,292.645 273.5,298.5C 273.351,297.448 273.517,296.448 274,295.5C 278.142,290.537 281.642,285.204 284.5,279.5C 289.656,273.192 294.323,266.525 298.5,259.5C 302.452,253.902 306.785,249.235 311.5,245.5C 313.185,247.571 314.852,249.571 316.5,251.5 Z"/></g>
<g><path style="opacity:1" fill="#b0b6bd" d="M 167.5,247.5 C 168.376,247.369 169.043,247.702 169.5,248.5C 175.921,259.013 182.588,269.346 189.5,279.5C 182.833,279.5 176.167,279.5 169.5,279.5C 170.472,278.601 171.138,277.434 171.5,276C 169.881,269.374 167.714,262.874 165,256.5C 164.014,255.829 162.847,255.829 161.5,256.5C 163.252,253.328 165.252,250.328 167.5,247.5 Z"/></g>
<g><path style="opacity:1" fill="#77818f" d="M 221.5,209.5 C 219.887,212.132 218.22,214.798 216.5,217.5C 216.624,218.107 216.957,218.44 217.5,218.5C 211.465,226.73 205.799,235.23 200.5,244C 203.318,248.156 206.152,252.323 209,256.5C 210.697,253.98 212.53,251.647 214.5,249.5C 215.658,252.566 217.325,255.399 219.5,258C 218.746,263.413 220.246,268.247 224,272.5C 225.617,270.237 227.45,268.237 229.5,266.5C 227.807,270.372 225.474,273.872 222.5,277C 223.636,278.145 224.636,279.312 225.5,280.5C 230.097,288.699 235.43,296.365 241.5,303.5C 245.909,298.431 249.909,293.098 253.5,287.5C 256.973,286.553 260.14,284.887 263,282.5C 263.333,282.833 263.667,283.167 264,283.5C 264.833,282.5 265.667,281.5 266.5,280.5C 272.164,277.52 277.497,274.687 282.5,272C 285.343,268.825 288.51,265.991 292,263.5C 296.609,252.555 303.775,243.889 313.5,237.5C 311.526,240.482 309.526,243.482 307.5,246.5C 302.612,249.468 299.612,253.801 298.5,259.5C 294.323,266.525 289.656,273.192 284.5,279.5C 282.858,281.081 280.858,281.747 278.5,281.5C 278.607,283.903 277.607,285.736 275.5,287C 264.048,292.786 254.048,300.453 245.5,310C 242.318,312.739 239.318,312.905 236.5,310.5C 233.546,306.891 230.38,303.558 227,300.5C 220.736,281.805 209.903,266.305 194.5,254C 190.98,253.496 188.48,251.663 187,248.5C 184.474,242.396 182.474,236.062 181,229.5C 180.234,222.556 179.067,215.722 177.5,209C 180.817,208.502 184.15,208.335 187.5,208.5C 186.77,214.753 187.104,217.419 188.5,216.5C 196.22,206.781 203.553,196.781 210.5,186.5C 211.496,186.586 212.329,186.252 213,185.5C 215.553,193.334 218.053,200.834 220.5,208C 219.288,209.107 219.621,209.607 221.5,209.5 Z"/></g>
<g><path style="opacity:1" fill="#7c8188" d="M 170.5,243.5 C 173.488,247.462 176.488,251.462 179.5,255.5C 178.402,256.601 178.235,257.934 179,259.5C 183.441,266.059 187.607,272.726 191.5,279.5C 190.833,279.5 190.167,279.5 189.5,279.5C 182.588,269.346 175.921,259.013 169.5,248.5C 169.043,247.702 168.376,247.369 167.5,247.5C 168.512,246.128 169.512,244.795 170.5,243.5 Z"/></g>
<g><path style="opacity:1" fill="#636f7e" d="M 249.5,237.5 C 245.675,244.479 241.342,251.146 236.5,257.5C 235.957,257.56 235.624,257.893 235.5,258.5C 248.821,259.666 262.154,259.833 275.5,259C 277.358,256.976 279.025,254.809 280.5,252.5C 283.584,250.92 285.751,248.586 287,245.5C 287.333,245.833 287.667,246.167 288,246.5C 295.392,235.216 305.892,229.216 319.5,228.5C 317.745,231.68 315.745,234.68 313.5,237.5C 303.775,243.889 296.609,252.555 292,263.5C 288.51,265.991 285.343,268.825 282.5,272C 277.497,274.687 272.164,277.52 266.5,280.5C 265.667,281.5 264.833,282.5 264,283.5C 263.667,283.167 263.333,282.833 263,282.5C 260.14,284.887 256.973,286.553 253.5,287.5C 254.833,285.5 256.167,283.5 257.5,281.5C 258.043,281.44 258.376,281.107 258.5,280.5C 248.5,279.833 238.5,279.167 228.5,278.5C 232.554,273.591 234.387,267.924 234,261.5C 232.483,263.24 230.983,264.906 229.5,266.5C 227.45,268.237 225.617,270.237 224,272.5C 220.246,268.247 218.746,263.413 219.5,258C 217.325,255.399 215.658,252.566 214.5,249.5C 218.475,242.869 222.809,236.536 227.5,230.5C 228.123,224.826 228.623,218.826 229,212.5C 230.038,217.655 231.538,222.655 233.5,227.5C 238.721,228.624 238.721,229.458 233.5,230C 235.525,235.074 237.359,240.241 239,245.5C 240.147,244.542 241.147,244.875 242,246.5C 244.364,243.31 246.864,240.31 249.5,237.5 Z"/></g>
<g><path style="opacity:1" fill="#888888" d="M 88.5,262.5 C 89.964,261.84 91.6307,261.507 93.5,261.5C 95.6397,261.556 97.3064,262.223 98.5,263.5C 95.272,262.586 91.9387,262.253 88.5,262.5 Z"/></g>
<g><path style="opacity:1" fill="#f7f7f7" d="M 88.5,262.5 C 91.9387,262.253 95.272,262.586 98.5,263.5C 106.722,320.452 137.389,359.952 190.5,382C 253.806,401.884 307.64,387.384 352,338.5C 370.01,315.985 380.51,290.318 383.5,261.5C 386.833,261.5 390.167,261.5 393.5,261.5C 385.22,326.238 350.553,370.071 289.5,393C 222.089,412.079 165.589,395.246 120,342.5C 101.761,318.963 91.2613,292.296 88.5,262.5 Z"/></g>
<g><path style="opacity:1" fill="#4c4f53" d="M 179.5,255.5 C 184.833,263.5 190.167,271.5 195.5,279.5C 194.167,279.5 192.833,279.5 191.5,279.5C 187.607,272.726 183.441,266.059 179,259.5C 178.235,257.934 178.402,256.601 179.5,255.5 Z"/></g>
<g><path style="opacity:1" fill="#a8acb2" d="M 316.5,251.5 C 317.167,251.5 317.833,251.5 318.5,251.5C 324.833,260.833 331.167,270.167 337.5,279.5C 335.983,279.489 334.816,278.823 334,277.5C 327.945,268.952 322.112,260.285 316.5,251.5 Z"/></g>
<g><path style="opacity:1" fill="#c6cbd0" d="M 169.5,279.5 C 161.493,279.666 153.493,279.5 145.5,279C 150.732,271.345 156.066,263.845 161.5,256.5C 162.847,255.829 164.014,255.829 165,256.5C 167.714,262.874 169.881,269.374 171.5,276C 171.138,277.434 170.472,278.601 169.5,279.5 Z"/></g>
<g><path style="opacity:1" fill="#484f57" d="M 257.5,281.5 C 247.013,280.506 236.346,280.172 225.5,280.5C 224.636,279.312 223.636,278.145 222.5,277C 225.474,273.872 227.807,270.372 229.5,266.5C 230.983,264.906 232.483,263.24 234,261.5C 234.387,267.924 232.554,273.591 228.5,278.5C 238.5,279.167 248.5,279.833 258.5,280.5C 258.376,281.107 258.043,281.44 257.5,281.5 Z"/></g>
<g><path style="opacity:1" fill="#a3aab3" d="M 161.5,208.5 C 164.167,208.5 166.833,208.5 169.5,208.5C 175.154,222.961 180.321,237.627 185,252.5C 190.222,261.06 196.222,269.06 203,276.5C 208.917,285.331 214.583,294.331 220,303.5C 220.446,306.343 220.946,309.176 221.5,312C 221.472,313.07 221.139,313.903 220.5,314.5C 217.117,310.447 214.117,306.114 211.5,301.5C 212.598,300.399 212.765,299.066 212,297.5C 210.748,295.999 209.748,294.332 209,292.5C 201,281.167 193,269.833 185,258.5C 179.426,246.23 174.759,233.563 171,220.5C 170,219.833 169,219.167 168,218.5C 166.556,214.589 164.389,211.256 161.5,208.5 Z"/></g>
<g><path style="opacity:1" fill="#8c949f" d="M 172.5,207.5 C 177.833,207.5 183.167,207.5 188.5,207.5C 188.5,210.5 188.5,213.5 188.5,216.5C 187.104,217.419 186.77,214.753 187.5,208.5C 184.15,208.335 180.817,208.502 177.5,209C 179.067,215.722 180.234,222.556 181,229.5C 182.474,236.062 184.474,242.396 187,248.5C 188.48,251.663 190.98,253.496 194.5,254C 209.903,266.305 220.736,281.805 227,300.5C 230.38,303.558 233.546,306.891 236.5,310.5C 239.318,312.905 242.318,312.739 245.5,310C 254.048,300.453 264.048,292.786 275.5,287C 277.607,285.736 278.607,283.903 278.5,281.5C 280.858,281.747 282.858,281.081 284.5,279.5C 281.642,285.204 278.142,290.537 274,295.5C 273.517,296.448 273.351,297.448 273.5,298.5C 262.887,314.286 252.054,329.953 241,345.5C 233.918,335.267 227.085,324.933 220.5,314.5C 221.139,313.903 221.472,313.07 221.5,312C 220.946,309.176 220.446,306.343 220,303.5C 214.583,294.331 208.917,285.331 203,276.5C 196.222,269.06 190.222,261.06 185,252.5C 180.321,237.627 175.154,222.961 169.5,208.5C 170.791,208.737 171.791,208.404 172.5,207.5 Z"/></g>
<g><path style="opacity:1" fill="#030303" d="M 225.5,280.5 C 236.346,280.172 247.013,280.506 257.5,281.5C 256.167,283.5 254.833,285.5 253.5,287.5C 249.909,293.098 245.909,298.431 241.5,303.5C 235.43,296.365 230.097,288.699 225.5,280.5 Z"/></g>
</svg>
