<?xml version="1.0" standalone="no"?>
<!DOCTYPE svg PUBLIC "-//W3C//DTD SVG 20010904//EN"
 "http://www.w3.org/TR/2001/REC-SVG-20010904/DTD/svg10.dtd">
<svg version="1.0" xmlns="http://www.w3.org/2000/svg"
 width="1500.000000pt" height="1500.000000pt" viewBox="0 0 1500.000000 1500.000000"
 preserveAspectRatio="xMidYMid meet">

<g transform="translate(0.000000,1500.000000) scale(0.100000,-0.100000)"
fill="white" stroke="none">
<path d="M7283 13163 c-18 -2 -33 -7 -33 -11 0 -4 11 -133 24 -287 13 -154 23
-281 21 -283 -1 -1 -116 118 -255 265 l-254 268 -48 3 c-43 3 -48 1 -48 -18 0
-43 61 -764 65 -768 2 -2 27 -1 54 3 40 5 51 11 51 25 0 10 -9 129 -21 265
-11 136 -19 256 -17 268 2 16 57 -36 256 -246 l254 -267 44 0 44 0 0 37 c0 44
-47 648 -56 711 -6 45 -4 44 -81 35z"/>
<path d="M8020 13128 c0 -7 -22 -182 -50 -388 -27 -206 -48 -375 -47 -376 1
-1 25 -5 54 -9 61 -8 54 -24 79 173 15 123 18 132 38 132 11 0 99 -11 194 -24
120 -15 175 -19 177 -12 12 39 12 86 2 86 -35 1 -369 49 -374 54 -6 6 23 256
31 263 2 3 99 -8 215 -23 116 -15 213 -25 217 -22 3 4 8 24 11 47 7 48 34 41
-282 81 -277 35 -265 34 -265 18z"/>
<path d="M6003 12976 c-131 -33 -234 -114 -287 -226 -29 -60 -31 -73 -31 -170
0 -97 2 -110 32 -172 85 -180 273 -263 479 -212 187 47 314 201 314 382 0 169
-84 307 -226 374 -77 36 -195 46 -281 24z m238 -123 c145 -79 202 -268 124
-412 -33 -60 -66 -91 -139 -129 -43 -22 -64 -26 -136 -26 -95 -1 -145 18 -208
78 -138 130 -116 379 43 471 107 63 222 70 316 18z"/>
<path d="M8930 12936 c-156 -43 -262 -160 -292 -324 -21 -114 14 -236 93 -326
122 -139 351 -187 512 -108 243 120 301 448 112 638 -108 108 -286 159 -425
120z m212 -106 c82 -25 147 -81 185 -158 70 -143 7 -327 -140 -404 -60 -33
-191 -32 -262 0 -63 29 -119 83 -153 147 -35 68 -37 176 -4 250 37 81 115 149
202 176 45 13 106 9 172 -11z"/>
<path d="M5300 12733 c-19 -8 -37 -16 -39 -18 -4 -4 279 -706 290 -719 9 -11
99 23 99 38 0 6 -65 168 -143 361 -92 225 -148 350 -157 352 -8 1 -31 -5 -50
-14z"/>
<path d="M9707 12453 c-64 -131 -122 -260 -128 -288 -36 -170 91 -329 298
-374 105 -22 211 20 283 110 22 28 90 149 150 270 l110 219 -50 25 -50 25
-110 -220 c-142 -284 -182 -330 -289 -330 -69 0 -165 50 -205 108 -26 37 -31
52 -30 104 1 56 9 76 117 294 65 129 117 237 117 239 0 4 -84 55 -91 55 -3 0
-57 -107 -122 -237z"/>
<path d="M4958 12560 c-151 -25 -277 -105 -324 -205 -30 -63 -30 -116 0 -181
49 -106 137 -127 333 -80 144 34 202 34 236 0 37 -36 43 -76 19 -122 -43 -84
-166 -144 -299 -146 l-83 -1 0 -47 0 -48 73 0 c168 0 348 96 403 215 39 82 26
161 -36 226 -63 67 -112 70 -322 23 -142 -32 -170 -31 -210 5 -44 40 -46 100
-5 154 41 54 157 108 245 115 l70 5 -5 41 c-3 22 -6 42 -7 42 -7 8 -50 10 -88
4z"/>
<path d="M10481 11891 c-127 -170 -231 -311 -231 -313 0 -3 19 -18 43 -35 l42
-31 174 234 c96 129 176 233 177 231 1 -1 8 -170 15 -375 l13 -372 32 -25 c18
-14 36 -25 41 -24 6 0 255 329 438 580 l30 41 -35 29 c-19 15 -40 29 -47 29
-6 0 -87 -102 -179 -226 -109 -147 -170 -221 -174 -212 -4 7 -12 173 -19 368
l-11 355 -32 28 c-18 15 -35 27 -39 27 -4 0 -111 -139 -238 -309z"/>
<path d="M4293 12175 c-69 -19 -126 -48 -190 -97 -143 -109 -168 -265 -59
-366 75 -69 126 -68 318 3 147 55 196 59 239 16 22 -23 29 -39 29 -69 0 -100
-156 -215 -312 -229 l-57 -6 5 -31 c10 -55 11 -56 61 -56 99 1 250 75 328 162
111 122 96 287 -32 349 -61 30 -118 22 -272 -35 -154 -58 -207 -61 -245 -15
-65 77 -3 189 144 258 36 17 79 31 97 31 41 0 46 10 33 60 -12 44 -13 45 -87
25z"/>
<path d="M3667 11724 c-21 -20 -37 -39 -35 -43 5 -13 502 -581 508 -581 3 1
22 16 43 34 l39 32 -252 290 c-139 159 -255 292 -259 296 -3 4 -23 -9 -44 -28z"/>
<path d="M7439 11692 c-33 -4 -42 -15 -166 -187 -55 -77 -185 -259 -290 -405
-992 -1385 -1763 -2461 -1782 -2487 -12 -18 -27 -33 -32 -33 -6 0 -9 72 -9
188 l2 187 -889 -4 c-488 -2 -889 -5 -891 -6 -3 -3 49 -79 308 -450 256 -367
602 -867 651 -943 l48 -73 -133 -187 c-73 -103 -253 -356 -401 -562 -434 -606
-545 -763 -545 -772 0 -4 354 -9 788 -9 433 -1 920 -5 1082 -8 l295 -6 258
-365 c142 -201 313 -444 381 -540 68 -96 193 -274 278 -395 244 -347 523 -744
761 -1083 120 -172 223 -312 228 -310 11 4 340 457 994 1373 287 402 544 760
571 797 27 36 101 137 164 223 63 86 136 183 162 214 l48 58 157 7 c87 3 565
8 1063 12 498 3 912 8 922 10 12 4 -103 178 -501 757 -284 414 -520 757 -524
764 -12 20 14 62 203 328 352 497 799 1140 807 1163 4 9 -177 12 -886 12
l-891 0 -1 -147 c0 -82 -3 -166 -7 -188 l-7 -39 -775 1104 c-1299 1854 -1391
1985 -1403 1995 -7 6 -24 9 -38 7z m79 -1939 c311 -438 552 -782 552 -787 0
-3 -290 -6 -644 -6 -355 0 -646 -3 -648 -7 -2 -5 -2 -205 0 -445 l2 -438 30 0
c51 0 68 29 -252 -418 -105 -147 -259 -361 -341 -477 -218 -305 -199 -282
-208 -258 -4 11 -89 134 -188 273 -100 139 -180 256 -179 260 5 11 1750 2470
1753 2470 2 0 57 -75 123 -167z m1049 -1493 c247 -355 483 -693 523 -752 l74
-108 -24 -42 c-13 -24 -89 -137 -170 -253 -80 -115 -160 -231 -178 -256 l-31
-47 -738 5 c-406 3 -766 8 -799 11 l-61 7 118 170 c745 1074 743 1070 777
1073 l32 3 0 387 c0 372 5 473 20 455 4 -4 209 -298 457 -653z m-458 -2335 c7
-7 -61 -109 -233 -349 -94 -132 -196 -275 -226 -317 -155 -219 -243 -339 -251
-339 -4 0 -27 28 -50 63 -24 34 -147 211 -274 392 -325 464 -321 458 -344 506
-12 23 -21 45 -21 48 0 6 1393 2 1399 -4z"/>
<path d="M11232 11294 l-282 -266 131 -138 c147 -156 175 -180 257 -218 49
-23 70 -27 152 -27 123 0 184 27 275 119 134 137 150 323 40 486 -35 52 -272
310 -284 310 -3 -1 -133 -120 -289 -266z m511 -132 c26 -56 29 -71 26 -140 -4
-68 -8 -84 -38 -130 -64 -100 -186 -163 -289 -147 -81 12 -140 51 -244 159
-54 55 -98 104 -98 108 0 4 96 97 213 207 l212 201 94 -97 c67 -70 103 -116
124 -161z"/>
<path d="M3346 11437 l-26 -33 100 -299 c55 -164 98 -301 95 -303 -2 -3 -143
21 -312 52 -169 31 -311 56 -314 56 -4 0 -18 -15 -32 -34 l-26 -33 295 -258
c162 -141 296 -255 297 -253 1 2 17 19 35 39 l33 36 -211 183 c-116 100 -208
185 -206 187 3 3 122 -16 266 -42 255 -46 263 -47 280 -29 17 18 15 29 -66
274 -46 140 -82 258 -81 262 1 4 97 -76 214 -178 l212 -184 35 37 35 38 -22
21 c-42 41 -566 494 -571 494 -3 0 -16 -15 -30 -33z"/>
<path d="M11907 10530 c-225 -38 -411 -70 -414 -73 -7 -8 48 -87 61 -87 6 0
49 7 96 15 47 8 90 15 96 15 6 0 63 -78 127 -174 l116 -175 -54 -83 c-30 -46
-55 -89 -55 -96 0 -11 49 -92 56 -92 2 0 422 672 448 717 7 13 -49 104 -62
102 -4 -1 -191 -32 -415 -69z m307 -127 c-31 -49 -82 -127 -113 -175 -31 -49
-58 -88 -61 -88 -3 0 -47 63 -97 140 l-93 139 33 6 c190 36 346 63 365 64 20
1 17 -7 -34 -86z"/>
<path d="M2422 10214 c-13 -26 -22 -47 -20 -49 2 -1 116 -60 255 -131 138 -71
247 -131 242 -135 -5 -3 -169 -39 -363 -80 l-354 -74 -21 -41 -20 -42 350
-177 c193 -97 352 -175 353 -173 6 6 46 87 46 93 0 3 -107 59 -237 124 -131
66 -246 125 -256 133 -16 12 28 23 335 87 194 41 359 76 366 79 7 2 22 22 32
43 l20 38 -253 129 c-328 169 -435 222 -445 222 -4 0 -18 -21 -30 -46z"/>
<path d="M12563 10143 c-18 -9 -33 -22 -33 -28 0 -7 25 -62 55 -124 l55 -112
-309 -151 -309 -150 20 -47 c12 -25 22 -47 23 -49 4 -5 54 18 347 161 l277
136 57 -120 c32 -65 61 -119 65 -119 15 0 79 34 79 41 0 16 -279 579 -287 578
-4 0 -23 -8 -40 -16z"/>
<path d="M12586 9275 c-197 -74 -360 -136 -363 -139 -3 -2 2 -27 12 -55 l16
-50 62 23 c34 13 199 74 367 136 168 62 306 114 308 115 4 3 -29 88 -37 97 -3
3 -167 -54 -365 -127z"/>
<path d="M2180 9284 c-75 -20 -129 -54 -183 -114 -84 -94 -123 -210 -114 -341
13 -189 145 -328 343 -362 164 -28 334 64 412 223 125 257 10 526 -254 594
-75 19 -132 19 -204 0z m226 -124 c58 -25 121 -85 150 -141 75 -148 11 -338
-141 -417 -41 -21 -64 -26 -125 -26 -66 -1 -85 4 -142 32 -67 33 -106 72 -144
142 -29 53 -26 188 4 255 70 153 246 222 398 155z"/>
<path d="M12730 8989 c-228 -38 -374 -253 -327 -480 42 -206 180 -336 368
-347 140 -8 272 50 349 152 118 156 104 397 -31 550 -88 100 -224 147 -359
125z m212 -142 c95 -55 148 -146 156 -263 4 -62 1 -79 -23 -133 -84 -187 -324
-240 -474 -105 -61 55 -85 97 -101 180 -23 118 25 236 124 302 66 44 97 52
192 49 66 -3 89 -8 126 -30z"/>
<path d="M1745 8290 c-4 -28 -5 -53 -3 -55 4 -4 732 -125 753 -125 14 0 19 13
29 70 l6 36 -357 58 c-197 32 -372 60 -389 63 -32 5 -32 5 -39 -47z"/>
<path d="M1696 7998 c-7 -23 -38 -609 -33 -614 3 -3 23 -8 46 -11 50 -7 47
-21 62 260 7 120 15 216 19 215 4 -2 137 -121 294 -265 256 -234 291 -263 321
-263 33 0 34 1 39 53 6 54 36 545 36 585 0 20 -5 22 -48 22 l-49 0 -13 -240
c-7 -133 -17 -243 -21 -246 -5 -3 -137 112 -295 256 -258 235 -289 260 -320
260 -19 0 -36 -6 -38 -12z"/>
<path d="M12885 7948 c-198 -11 -360 -20 -361 -21 0 -1 2 -26 4 -54 l4 -53 66
1 c37 0 167 6 289 12 l223 12 -23 -22 c-12 -12 -137 -125 -277 -251 l-255
-228 4 -44 c1 -25 4 -46 5 -47 0 0 159 7 351 18 193 10 367 19 388 19 l37 0 0
55 0 55 -72 -1 c-40 0 -170 -6 -290 -12 -180 -10 -214 -10 -205 1 6 8 129 120
274 249 l263 235 0 49 c0 49 0 49 -32 48 -18 -1 -195 -10 -393 -21z"/>
<path d="M1870 6715 c0 -13 9 -93 20 -177 139 -1085 596 -2110 1317 -2957 137
-161 452 -476 613 -613 686 -585 1466 -986 2322 -1198 480 -118 866 -164 1368
-164 505 0 888 46 1368 164 755 187 1453 522 2077 999 379 291 765 677 1056
1056 607 794 992 1727 1120 2713 10 81 19 159 19 175 l0 27 -110 0 c-106 0
-110 -1 -114 -22 -3 -13 -12 -84 -21 -158 -111 -905 -493 -1835 -1061 -2581
-295 -388 -693 -782 -1079 -1070 -949 -706 -2073 -1079 -3255 -1079 -1182 0
-2306 373 -3255 1079 -386 288 -784 682 -1079 1070 -568 746 -950 1676 -1061
2581 -9 74 -18 145 -21 158 -4 21 -8 22 -114 22 l-110 0 0 -25z"/>
</g>
</svg>
